<svg version="1.1" xmlns="http://www.w3.org/2000/svg" xmlns:xlink="http://www.w3.org/1999/xlink" x="0px" y="0px" width="259.97px" height="61.11px" viewBox="0 0 259.97 61.11" style="overflow:visible; enable-background:new 0 0 259.97 61.11;" xml:space="preserve" id="sitelogo">
        <title>BE:FIRST</title>
        <defs>
        </defs>
        <g>
        	<g>
        		<path d="M28.41,14.42v2.13c0,6.14-1.9,10.07-6.13,12.03c5.09,1.96,7.08,6.49,7.08,12.8v4.87c0,9.22-4.92,14.17-14.42,14.17H0V0.68
        			h14.33C24.18,0.68,28.41,5.21,28.41,14.42z M9.5,9.22v15.79h3.71c3.54,0,5.7-1.54,5.7-6.32v-3.33c0-4.27-1.47-6.15-4.84-6.15H9.5z
        			 M9.5,33.54v18.35h5.44c3.2,0,4.92-1.45,4.92-5.89V40.8c0-5.55-1.81-7.25-6.13-7.25H9.5z"></path>
        		<path d="M46.06,25.86H58.5v8.53H46.06v17.5h16.41v8.53H36.56V0.68h25.91v8.53H46.06V25.86z"></path>
        	</g>
        	<polygon points="93.25,0.68 76.07,0.68 76.07,38.07 93.25,0.68 	"></polygon>
        </g>
        <g>
        	<polygon points="76.07,60.42 76.07,60.43 93.25,60.43 93.25,22.98 	"></polygon>
        	<g>
        	<path d="M117.49,27.23h12.26v8.53h-12.26v24.67h-9.5V0.68h25.13v8.53h-15.63V27.23z"></path>
        	<path d="M141.52,0.68h9.5v59.74h-9.5V0.68z"></path>
        	<path d="M181.52,60.43c-0.52-1.54-0.86-2.48-0.86-7.34V43.7c0-5.55-1.9-7.6-6.22-7.6h-3.28v24.32h-9.5V0.68H176
        		c9.84,0,14.08,4.52,14.08,13.74v4.69c0,6.14-1.99,10.16-6.22,12.12c4.75,1.96,6.3,6.49,6.3,12.72v9.22c0,2.9,0.09,5.04,1.04,7.25
        		H181.52z M171.16,9.22v18.35h3.71c3.54,0,5.7-1.54,5.7-6.32v-5.89c0-4.27-1.47-6.15-4.84-6.15H171.16z"></path>
        	<path d="M211.91,0c9.24,0,13.99,5.46,13.99,15.02v1.88h-8.98v-2.48c0-4.27-1.73-5.89-4.75-5.89s-4.75,1.62-4.75,5.89
        		c0,12.29,18.57,14.59,18.57,31.66c0,9.56-4.84,15.02-14.16,15.02c-9.33,0-14.16-5.46-14.16-15.02v-3.67h8.98v4.27
        		c0,4.27,1.9,5.8,4.92,5.8c3.02,0,4.92-1.54,4.92-5.8c0-12.29-18.57-14.59-18.57-31.66C197.92,5.46,202.67,0,211.91,0z"></path>
        	<path d="M230.61,0.68h29.36v8.53h-9.93v51.21h-9.5V9.22h-9.93V0.68z"></path>
          </g>
        </g>
        </svg>